<?xml version="1.0" encoding="UTF-8"?>
<svg id="Layer_1" data-name="Layer 1" xmlns="http://www.w3.org/2000/svg" viewBox="0 0 592.34 58">
  <defs>
    <style>
      .cls-1 {
        stroke: #000;
        stroke-miterlimit: 10;
        stroke-width: .25px;
      }
    </style>
  </defs>
  <path d="m36.11,21h14.35c.9,0,1.34,1.15.69,1.8l-16.02,15.94c-.41.41-.41,1.1,0,1.51l16.02,15.94c.65.65.21,1.8-.69,1.8h-14.35c-.27,0-.53-.12-.72-.32l-8.92-9.71c-.39-.43-1.05-.43-1.44,0l-8.92,9.71c-.19.21-.45.32-.72.32H1c-.9,0-1.34-1.15-.69-1.8l16.02-15.94c.41-.41.41-1.1,0-1.51L.31,22.8c-.65-.65-.21-1.8.69-1.8h14.37c.27,0,.53.12.72.32l8.92,9.69c.39.43,1.05.43,1.44,0l8.92-9.69c.19-.2.45-.32.72-.32Z"/>
  <path d="m62.87,33.27l9.31-11.9c.19-.24.47-.38.77-.38h13.76c.85,0,1.31,1.04.76,1.72l-18.24,22.35c-.15.19-.24.43-.24.68v11.21c0,.58-.45,1.04-1,1.04h-11.82c-.55,0-1-.47-1-1.04v-11.21c0-.25-.08-.49-.24-.68l-18.24-22.35c-.55-.68-.09-1.72.76-1.72h13.79c.3,0,.59.14.78.38l9.29,11.89c.4.51,1.15.51,1.55,0Z"/>
  <path d="m107.61,21h39.48c.55,0,1,.47,1,1.04v7.38c0,.58-.45,1.04-1,1.04h-25.66c-.55,0-1,.47-1,1.04v2.65c0,.58.45,1.04,1,1.04h25.66c.55,0,1,.47,1,1.04v6.47c0,.58-.45,1.04-1,1.04h-25.66c-.55,0-1,.47-1,1.04v2.65c0,.58.45,1.04,1,1.04h25.66c.55,0,1,.47,1,1.04v7.41c0,.58-.45,1.04-1,1.04h-39.48c-.55,0-1-.47-1-1.04V22.04c0-.58.45-1.04,1-1.04Z"/>
  <path d="m176.14,35.51c9.89.5,23.78,1.18,23.76,10.02,0,10.08-11.6,12.46-24.05,12.46-11.95-.02-21.94-1.41-23.86-11.26-.12-.62.35-1.21.98-1.21h12.76c.34,0,.64.18.84.45,1.71,2.36,5.2,2.98,9.28,2.98,4.3,0,9.57-.71,9.57-3.44,0-1.55-4.3-1.78-9.86-2.05-9.89-.5-23.78-1.18-23.76-10,0-10.08,11.6-12.49,24.05-12.49,11.95.08,21.95,1.37,23.86,11.29.12.62-.35,1.2-.98,1.2h-12.76c-.34,0-.64-.18-.84-.46-1.71-2.4-5.2-2.98-9.28-2.98-4.3,0-9.57.63-9.57,3.44,0,1.55,4.3,1.76,9.86,2.02Z"/>
  <path d="m227.79,35.51c9.89.5,23.78,1.18,23.76,10.02,0,10.08-11.6,12.46-24.05,12.46-11.95-.02-21.94-1.41-23.86-11.26-.12-.62.35-1.21.98-1.21h12.76c.34,0,.64.18.84.45,1.71,2.36,5.2,2.98,9.28,2.98,4.3,0,9.57-.71,9.57-3.44,0-1.55-4.3-1.78-9.86-2.05-9.89-.5-23.78-1.18-23.76-10,0-10.08,11.6-12.49,24.05-12.49,11.95.08,21.95,1.37,23.86,11.29.12.62-.35,1.2-.98,1.2h-12.76c-.34,0-.64-.18-.84-.46-1.71-2.4-5.2-2.98-9.28-2.98-4.3,0-9.57.63-9.57,3.44,0,1.55,4.3,1.76,9.86,2.02Z"/>
  <path d="m256.24,21h39.48c.55,0,1,.47,1,1.04v7.38c0,.58-.45,1.04-1,1.04h-25.66c-.55,0-1,.47-1,1.04v2.65c0,.58.45,1.04,1,1.04h25.66c.55,0,1,.47,1,1.04v6.47c0,.58-.45,1.04-1,1.04h-25.66c-.55,0-1,.47-1,1.04v2.65c0,.58.45,1.04,1,1.04h25.66c.55,0,1,.47,1,1.04v7.41c0,.58-.45,1.04-1,1.04h-39.48c-.55,0-1-.47-1-1.04V22.04c0-.58.45-1.04,1-1.04Z"/>
  <path d="m335.61,21h11.84c.55,0,1,.47,1,1.04v34.91c0,.58-.45,1.04-1,1.04h-14.1c-.29,0-.56-.13-.75-.35l-16.99-20.17c-.61-.72-1.75-.27-1.75.69v18.79c0,.58-.45,1.04-1,1.04h-11.82c-.55,0-1-.47-1-1.04V22.04c0-.58.45-1.04,1-1.04h17.54c.3,0,.58.14.77.38l13.49,16.99c.6.75,1.77.31,1.77-.67v-15.66c0-.58.45-1.04,1-1.04Z"/>
  <path d="m368.68,56.95v-23.18c0-.58-.45-1.04-1-1.04h-14.43c-.55,0-1-.47-1-1.04v-9.64c0-.58.45-1.04,1-1.04h44.67c.55,0,1,.47,1,1.04v9.64c0,.58-.45,1.04-1,1.04h-14.43c-.55,0-1,.47-1,1.04v23.18c0,.58-.45,1.04-1,1.04h-11.82c-.55,0-1-.47-1-1.04Z"/>
  <path d="m416.36,22.04v34.91c0,.58-.45,1.04-1,1.04h-11.82c-.55,0-1-.47-1-1.04V22.04c0-.58.45-1.04,1-1.04h11.82c.55,0,1,.47,1,1.04Z"/>
  <path d="m439.02,21h15.23c.37,0,.71.21.88.55l17.94,34.91c.36.7-.13,1.54-.88,1.54h-13.25c-.39,0-.74-.24-.91-.61l-2.26-5.12c-.16-.37-.52-.61-.91-.61h-16.46c-.39,0-.74.24-.91.61l-2.26,5.12c-.16.37-.52.61-.91.61h-13.25c-.76,0-1.24-.84-.88-1.54l17.94-34.91c.17-.34.51-.55.88-.55Zm4.32,21.64h6.59c.73,0,1.21-.79.91-1.48l-3.29-7.41c-.36-.81-1.45-.81-1.81,0l-3.31,7.41c-.31.69.18,1.49.91,1.49Z"/>
  <path d="m490.73,22.04v23.18c0,.58.45,1.04,1,1.04h25.66c.55,0,1,.47,1,1.04v9.64c0,.58-.45,1.04-1,1.04h-39.48c-.55,0-1-.47-1-1.04V22.04c0-.58.45-1.04,1-1.04h11.82c.55,0,1,.47,1,1.04Z"/>
  <path d="m546.02,35.51c9.89.5,23.78,1.18,23.76,10.02,0,10.08-11.6,12.46-24.05,12.46-11.95-.02-21.94-1.41-23.86-11.26-.12-.62.35-1.21.98-1.21h12.76c.34,0,.64.18.84.45,1.71,2.36,5.2,2.98,9.28,2.98,4.3,0,9.57-.71,9.57-3.44,0-1.55-4.3-1.78-9.86-2.05-9.89-.5-23.78-1.18-23.76-10,0-10.08,11.6-12.49,24.05-12.49,11.95.08,21.95,1.37,23.86,11.29.12.62-.35,1.2-.98,1.2h-12.76c-.34,0-.64-.18-.84-.46-1.71-2.4-5.2-2.98-9.28-2.98-4.3,0-9.57.63-9.57,3.44,0,1.55,4.3,1.76,9.86,2.02Z"/>
  <path class="cls-1" d="m591.33.12h-29.23c-.49,0-.89.4-.89.89v12.84c0,.49.4.89.89.89h14.61c.49,0,.89.4.89.89v14.61c0,.49.4.89.89.89h12.84c.49,0,.89-.4.89-.89V1.01c0-.49-.4-.89-.89-.89Z"/>
</svg>