<?xml version="1.0" encoding="UTF-8"?>
<svg id="Layer_1" data-name="Layer 1" xmlns="http://www.w3.org/2000/svg" viewBox="0 0 513.44 251.29">
  <path d="m435.86,73.97h-41.77c-1.08,0-2.11.49-2.79,1.32l-40.52,49.57c-1.44,1.77-4.15,1.77-5.59,0l-52.21-64.04c-.69-.84-1.71-1.33-2.8-1.33h-92.84c-.98,0-1.92.4-2.6,1.11l-50.13,52.13c-1.42,1.48-3.78,1.48-5.2,0l-50.13-52.13c-.68-.71-1.62-1.11-2.6-1.11H3.62c-3.26,0-4.85,3.97-2.49,6.22l91.35,87.07c1.49,1.42,1.49,3.8,0,5.22L1.13,245.07c-2.36,2.25-.77,6.22,2.49,6.22h83.06c.98,0,1.92-.4,2.6-1.11l50.13-52.25c1.42-1.48,3.79-1.48,5.21,0l50.13,52.25c.68.71,1.62,1.11,2.6,1.11h82.93c3.26,0,4.85-3.97,2.49-6.22l-91.35-87.06c-1.49-1.42-1.49-3.8,0-5.22l47.48-45.27c1.5-1.43,3.89-1.31,5.24.27l65.58,76.98c.56.65.86,1.48.86,2.34v60.57c0,1.99,1.62,3.61,3.61,3.61h67.56c1.99,0,3.61-1.62,3.61-3.61v-60.57c0-.86.31-1.69.86-2.34l52.38-61.48c.56-.65.86-1.48.86-2.34v-43.38c0-1.99-1.62-3.61-3.61-3.61Z"/>
  <path d="m509.83,0h-119.07c-1.99,0-3.61,1.62-3.61,3.61v52.32c0,1.99,1.62,3.61,3.61,3.61h59.53c1.99,0,3.61,1.62,3.61,3.61v59.53c0,1.99,1.62,3.61,3.61,3.61h52.32c1.99,0,3.61-1.62,3.61-3.61V3.61c0-1.99-1.62-3.61-3.61-3.61Z"/>
</svg>